<svg id="Rain_Icon" data-name="Rain Icon" xmlns="http://www.w3.org/2000/svg" width="56.751" height="56.751" viewBox="0 0 56.751 56.751">
  <path id="Path_3" data-name="Path 3" d="M27.1,9.64c6.987,0,10.96,4.469,11.528,9.861h.177a8,8,0,0,1,8.158,7.839,8,8,0,0,1-8.158,7.839H36.786l-.035.071-4.209,7.673A1.417,1.417,0,0,1,29.952,41.8l.095-.236,3.511-6.385H28.3l-.024.071-4.209,7.673a1.423,1.423,0,0,1-2.6-1.123l.106-.236,3.511-6.385h-5.32l-4.209,7.744a1.43,1.43,0,0,1-1.691.674l-.236-.106a1.43,1.43,0,0,1-.674-1.691l.106-.236,3.476-6.385H15.386A8,8,0,0,1,7.24,27.339a7.974,7.974,0,0,1,7.65-7.827l.674-.012C16.143,14.074,20.1,9.64,27.1,9.64Z" transform="translate(1.32 1.758)" fill="#212121"/>
  <path id="Path_4" data-name="Path 4" d="M0,0H56.751V56.751H0Z" fill="none"/>
</svg>
