<svg id="Group_157" data-name="Group 157" xmlns="http://www.w3.org/2000/svg" width="54.336" height="54.336" viewBox="0 0 54.336 54.336">
  <path id="Path_20" data-name="Path 20" d="M30.279,19.695A11.9,11.9,0,0,0,18.506,29.883h-.113a8.49,8.49,0,0,0,0,16.98H42.165a8.49,8.49,0,0,0,0-16.98H42.04A11.884,11.884,0,0,0,30.279,19.695ZM29.554,8.9a1.7,1.7,0,0,0-3-1.6l-1.449,2.728a1.7,1.7,0,1,0,3,1.6ZM16.74,6.36a1.694,1.694,0,1,0-3.238,1L14.4,10.31a1.7,1.7,0,0,0,3.249-1ZM9.9,23.091a10.151,10.151,0,0,0,1.653,5.558,11.6,11.6,0,0,1,4.211-1.868,15.306,15.306,0,0,1,12.09-10.29A10.191,10.191,0,0,0,9.9,23.091ZM5.9,13.627a1.7,1.7,0,0,0-1.6,3l2.728,1.449a1.7,1.7,0,0,0,1.6-3ZM7.31,28.785a1.7,1.7,0,0,0-1-3.249l-2.955.906a1.7,1.7,0,0,0,1,3.249Z" transform="translate(0.285 0.681)" fill="#fff"/>
  <path id="Path_21" data-name="Path 21" d="M0,0H54.336V54.336H0Z" fill="none"/>
</svg>
